<svg version="1.2" xmlns="http://www.w3.org/2000/svg" viewBox="0 0 1000 400" width="1000" height="400">
	<title>footer-ai</title>
	<defs>
		<linearGradient id="g1" x1="590.8" y1="0" x2="1000" y2="0" gradientUnits="userSpaceOnUse">
			<stop offset="0" stop-color="#bd1445"/>
			<stop offset=".2" stop-color="#3b0055"/>
			<stop offset="1" stop-color="#000029"/>
		</linearGradient>
		<linearGradient id="g2" x1="425.1" y1="400.2" x2="0" y2="400.2" gradientUnits="userSpaceOnUse">
			<stop offset="0" stop-color="#bd1445"/>
			<stop offset=".2" stop-color="#3b0055"/>
			<stop offset="1" stop-color="#000029"/>
		</linearGradient>
		<linearGradient id="g3" x1="417.8" y1="541.1" x2="-59.4" y2="528.2" gradientUnits="userSpaceOnUse">
			<stop offset="0" stop-color="#922a55"/>
			<stop offset="1" stop-color="#390053"/>
		</linearGradient>
		<linearGradient id="g4" x1="417.9" y1="542.9" x2="-59.2" y2="530" gradientUnits="userSpaceOnUse">
			<stop offset="0" stop-color="#922a55"/>
			<stop offset="1" stop-color="#390053"/>
		</linearGradient>
		<linearGradient id="g5" x1="418.1" y1="522.7" x2="-59" y2="509.8" gradientUnits="userSpaceOnUse">
			<stop offset="0" stop-color="#922a55"/>
			<stop offset="1" stop-color="#390053"/>
		</linearGradient>
		<linearGradient id="g6" x1="418.4" y1="506.5" x2="-58.6" y2="493.6" gradientUnits="userSpaceOnUse">
			<stop offset="0" stop-color="#922a55"/>
			<stop offset="1" stop-color="#390053"/>
		</linearGradient>
		<linearGradient id="g7" x1="418.7" y1="492.2" x2="-58.3" y2="479.3" gradientUnits="userSpaceOnUse">
			<stop offset="0" stop-color="#922a55"/>
			<stop offset="1" stop-color="#390053"/>
		</linearGradient>
		<linearGradient id="g8" x1="419" y1="479.5" x2="-58" y2="466.5" gradientUnits="userSpaceOnUse">
			<stop offset="0" stop-color="#922a55"/>
			<stop offset="1" stop-color="#390053"/>
		</linearGradient>
		<linearGradient id="g9" x1="419.2" y1="468" x2="-57.7" y2="455.1" gradientUnits="userSpaceOnUse">
			<stop offset="0" stop-color="#922a55"/>
			<stop offset="1" stop-color="#390053"/>
		</linearGradient>
		<linearGradient id="g10" x1="419.4" y1="457.7" x2="-57.4" y2="444.8" gradientUnits="userSpaceOnUse">
			<stop offset="0" stop-color="#922a55"/>
			<stop offset="1" stop-color="#390053"/>
		</linearGradient>
		<linearGradient id="g11" x1="419.6" y1="448.3" x2="-57.2" y2="435.4" gradientUnits="userSpaceOnUse">
			<stop offset="0" stop-color="#922a55"/>
			<stop offset="1" stop-color="#390053"/>
		</linearGradient>
		<linearGradient id="g12" x1="419.8" y1="439.7" x2="-57" y2="426.8" gradientUnits="userSpaceOnUse">
			<stop offset="0" stop-color="#922a55"/>
			<stop offset="1" stop-color="#390053"/>
		</linearGradient>
		<linearGradient id="g13" x1="420" y1="431.9" x2="-56.8" y2="419" gradientUnits="userSpaceOnUse">
			<stop offset="0" stop-color="#922a55"/>
			<stop offset="1" stop-color="#390053"/>
		</linearGradient>
		<linearGradient id="g14" x1="420.1" y1="424.7" x2="-56.6" y2="411.8" gradientUnits="userSpaceOnUse">
			<stop offset="0" stop-color="#922a55"/>
			<stop offset="1" stop-color="#390053"/>
		</linearGradient>
		<linearGradient id="g15" x1="420.3" y1="418.1" x2="-56.4" y2="405.2" gradientUnits="userSpaceOnUse">
			<stop offset="0" stop-color="#922a55"/>
			<stop offset="1" stop-color="#390053"/>
		</linearGradient>
		<linearGradient id="g16" x1="420.4" y1="411.9" x2="-56.2" y2="399" gradientUnits="userSpaceOnUse">
			<stop offset="0" stop-color="#922a55"/>
			<stop offset="1" stop-color="#390053"/>
		</linearGradient>
		<linearGradient id="g17" x1="170.9" y1="-208.8" x2="1118.9" y2="-184.1" gradientUnits="userSpaceOnUse">
			<stop offset="0" stop-color="#922a55"/>
			<stop offset="1" stop-color="#390053"/>
		</linearGradient>
		<linearGradient id="g18" x1="103.2" y1="-211.9" x2="1051.3" y2="-187.1" gradientUnits="userSpaceOnUse">
			<stop offset="0" stop-color="#922a55"/>
			<stop offset="1" stop-color="#390053"/>
		</linearGradient>
		<linearGradient id="g19" x1="224" y1="-175.6" x2="1184.6" y2="-150.5" gradientUnits="userSpaceOnUse">
			<stop offset="0" stop-color="#922a55"/>
			<stop offset="1" stop-color="#390053"/>
		</linearGradient>
		<linearGradient id="g20" x1="272.3" y1="-146.5" x2="1244.4" y2="-121.1" gradientUnits="userSpaceOnUse">
			<stop offset="0" stop-color="#922a55"/>
			<stop offset="1" stop-color="#390053"/>
		</linearGradient>
		<linearGradient id="g21" x1="316.4" y1="-120.8" x2="1299" y2="-95.1" gradientUnits="userSpaceOnUse">
			<stop offset="0" stop-color="#922a55"/>
			<stop offset="1" stop-color="#390053"/>
		</linearGradient>
		<linearGradient id="g22" x1="356.9" y1="-97.9" x2="1349.1" y2="-72" gradientUnits="userSpaceOnUse">
			<stop offset="0" stop-color="#922a55"/>
			<stop offset="1" stop-color="#390053"/>
		</linearGradient>
		<linearGradient id="g23" x1="394.2" y1="-77.4" x2="1395.2" y2="-51.3" gradientUnits="userSpaceOnUse">
			<stop offset="0" stop-color="#922a55"/>
			<stop offset="1" stop-color="#390053"/>
		</linearGradient>
		<linearGradient id="g24" x1="428.6" y1="-59" x2="1437.8" y2="-32.6" gradientUnits="userSpaceOnUse">
			<stop offset="0" stop-color="#922a55"/>
			<stop offset="1" stop-color="#390053"/>
		</linearGradient>
		<linearGradient id="g25" x1="460.5" y1="-42.3" x2="1477.2" y2="-15.7" gradientUnits="userSpaceOnUse">
			<stop offset="0" stop-color="#922a55"/>
			<stop offset="1" stop-color="#390053"/>
		</linearGradient>
		<linearGradient id="g26" x1="490.1" y1="-27.1" x2="1513.9" y2="-0.4" gradientUnits="userSpaceOnUse">
			<stop offset="0" stop-color="#922a55"/>
			<stop offset="1" stop-color="#390053"/>
		</linearGradient>
		<linearGradient id="g27" x1="517.7" y1="-13.2" x2="1548.1" y2="13.7" gradientUnits="userSpaceOnUse">
			<stop offset="0" stop-color="#922a55"/>
			<stop offset="1" stop-color="#390053"/>
		</linearGradient>
		<linearGradient id="g28" x1="543.5" y1="-0.5" x2="1579.9" y2="26.6" gradientUnits="userSpaceOnUse">
			<stop offset="0" stop-color="#922a55"/>
			<stop offset="1" stop-color="#390053"/>
		</linearGradient>
		<linearGradient id="g29" x1="567.6" y1="11.3" x2="1609.8" y2="38.5" gradientUnits="userSpaceOnUse">
			<stop offset="0" stop-color="#922a55"/>
			<stop offset="1" stop-color="#390053"/>
		</linearGradient>
		<linearGradient id="g30" x1="590.2" y1="22.1" x2="1637.8" y2="49.5" gradientUnits="userSpaceOnUse">
			<stop offset="0" stop-color="#922a55"/>
			<stop offset="1" stop-color="#390053"/>
		</linearGradient>
		<linearGradient id="g31" x1="-1360.5" y1="390" x2="-1360.5" y2="0" gradientUnits="userSpaceOnUse">
			<stop offset="0" stop-color="#310046"/>
			<stop offset="1" stop-color="#230029"/>
		</linearGradient>
		<linearGradient id="g32" x1="-1047.4" y1="390" x2="-1047.4" y2="0" gradientUnits="userSpaceOnUse">
			<stop offset="0" stop-color="#5d0763"/>
			<stop offset="1" stop-color="#380055"/>
		</linearGradient>
		<linearGradient id="g33" x1="2198.1" y1="0" x2="2198.1" y2="391.4" gradientUnits="userSpaceOnUse">
			<stop offset="0" stop-color="#310046"/>
			<stop offset="1" stop-color="#230029"/>
		</linearGradient>
		<linearGradient id="g34" x1="-1376.8" y1="391.4" x2="-1376.8" y2="0" gradientUnits="userSpaceOnUse">
			<stop offset="0" stop-color="#5d0763"/>
			<stop offset="1" stop-color="#380055"/>
		</linearGradient>
		<radialGradient id="g35" cx="500" cy="346" r="500" gradientUnits="userSpaceOnUse">
			<stop offset="0" stop-color="#db1356"/>
			<stop offset=".5" stop-color="#700d60"/>
			<stop offset="1" stop-color="#270545"/>
		</radialGradient>
		<linearGradient id="g36" x1="497.9" y1="400" x2="497.9" y2="350.2" gradientUnits="userSpaceOnUse">
			<stop offset="0" stop-color="#230029"/>
			<stop offset=".5" stop-color="#4c0040"/>
			<stop offset="1" stop-color="#901846"/>
		</linearGradient>
		<linearGradient id="g37" x1="492.6" y1="88.7" x2="492.6" y2="0" gradientUnits="userSpaceOnUse">
			<stop offset="0" stop-color="#50004b"/>
			<stop offset=".4" stop-color="#310046"/>
			<stop offset="1" stop-color="#230029"/>
		</linearGradient>
		<radialGradient id="g38" cx="512.8" cy="347.4" r="537.6" gradientUnits="userSpaceOnUse">
			<stop offset="0" stop-color="#b81963"/>
			<stop offset="1" stop-color="#230029"/>
		</radialGradient>
		<linearGradient id="g39" x1="299.6" y1="349.5" x2="425.1" y2="349.5" gradientUnits="userSpaceOnUse">
			<stop offset="0" stop-color="#5e1363"/>
			<stop offset="1" stop-color="#a22263"/>
		</linearGradient>
		<linearGradient id="g40" x1="592.2" y1="345.6" x2="700.5" y2="345.6" gradientUnits="userSpaceOnUse">
			<stop offset="0" stop-color="#8e1163"/>
			<stop offset="1" stop-color="#5e1363"/>
		</linearGradient>
		<radialGradient id="g41" cx="498.4" cy="44.4" r="244.8" gradientUnits="userSpaceOnUse">
			<stop offset="0" stop-color="#36003e"/>
			<stop offset="1" stop-color="#320036"/>
		</radialGradient>
		<linearGradient id="g42" x1="285.1" y1="17.2" x2="414.7" y2="17.2" gradientUnits="userSpaceOnUse">
			<stop offset="0" stop-color="#5e1363"/>
			<stop offset="1" stop-color="#a22263"/>
		</linearGradient>
		<linearGradient id="g43" x1="602.7" y1="24.2" x2="711.4" y2="24.2" gradientUnits="userSpaceOnUse">
			<stop offset="0" stop-color="#a22263"/>
			<stop offset="1" stop-color="#5e1363"/>
		</linearGradient>
		<linearGradient id="g44" x1="86.3" y1="291.8" x2="86.3" y2="191.7" gradientUnits="userSpaceOnUse">
			<stop offset="0" stop-color="#611077"/>
			<stop offset="1" stop-color="#531759"/>
		</linearGradient>
		<linearGradient id="g45" x1="148.1" y1="280.3" x2="201.2" y2="280.3" gradientUnits="userSpaceOnUse">
			<stop offset="0" stop-color="#000000"/>
			<stop offset="1" stop-color="#ff4700"/>
		</linearGradient>
		<linearGradient id="g46" x1="734.6" y1="268" x2="734.6" y2="193" gradientUnits="userSpaceOnUse">
			<stop offset="0" stop-color="#611077"/>
			<stop offset="1" stop-color="#531759"/>
		</linearGradient>
		<linearGradient id="g47" x1="299.9" y1="51.4" x2="299.9" y2="183.1" gradientUnits="userSpaceOnUse">
			<stop offset="0" stop-color="#420763"/>
			<stop offset="1" stop-color="#380055"/>
		</linearGradient>
		<linearGradient id="g48" x1="284.8" y1="62.9" x2="284.8" y2="173.6" gradientUnits="userSpaceOnUse">
			<stop offset="0" stop-color="#380055"/>
			<stop offset="1" stop-color="#230029"/>
		</linearGradient>
		<linearGradient id="g49" x1="182.1" y1="103.6" x2="182.1" y2="220.3" gradientUnits="userSpaceOnUse">
			<stop offset="0" stop-color="#420763"/>
			<stop offset="1" stop-color="#380055"/>
		</linearGradient>
		<linearGradient id="g50" x1="165.2" y1="115.1" x2="165.2" y2="210.8" gradientUnits="userSpaceOnUse">
			<stop offset="0" stop-color="#380055"/>
			<stop offset="1" stop-color="#230029"/>
		</linearGradient>
		<linearGradient id="g51" x1="317.8" y1="88.7" x2="401.5" y2="88.7" gradientUnits="userSpaceOnUse">
			<stop offset="0" stop-color="#5e1363"/>
			<stop offset="1" stop-color="#8e1163"/>
		</linearGradient>
		<linearGradient id="g52" x1="-191.4" y1="371.5" x2="-191.4" y2="102.2" gradientUnits="userSpaceOnUse">
			<stop offset="0" stop-color="#310046"/>
			<stop offset="1" stop-color="#230029"/>
		</linearGradient>
		<linearGradient id="g53" x1="-1662.2" y1="372.9" x2="-1662.2" y2="88.7" gradientUnits="userSpaceOnUse">
			<stop offset="0" stop-color="#310046"/>
			<stop offset="1" stop-color="#230029"/>
		</linearGradient>
		<linearGradient id="g54" x1="314.8" y1="102.5" x2="314.8" y2="88.7" gradientUnits="userSpaceOnUse">
			<stop offset="0" stop-color="#310046"/>
			<stop offset="1" stop-color="#230029"/>
		</linearGradient>
		<linearGradient id="g55" x1="386.9" y1="123.2" x2="386.9" y2="113.2" gradientUnits="userSpaceOnUse">
			<stop offset="0" stop-color="#310046"/>
			<stop offset="1" stop-color="#230029"/>
		</linearGradient>
		<linearGradient id="g56" x1="707.9" y1="166.6" x2="707.9" y2="55.8" gradientUnits="userSpaceOnUse">
			<stop offset="0" stop-color="#380055"/>
			<stop offset="1" stop-color="#230029"/>
		</linearGradient>
		<linearGradient id="g57" x1="873.6" y1="105.1" x2="873.6" y2="44.4" gradientUnits="userSpaceOnUse">
			<stop offset="0" stop-color="#380055"/>
			<stop offset="1" stop-color="#230029"/>
		</linearGradient>
		<radialGradient id="g58" cx="494.6" cy="208.3" r="285.7" gradientUnits="userSpaceOnUse">
			<stop offset="0" stop-color="#ff84d9"/>
			<stop offset="1" stop-color="#724572"/>
		</radialGradient>
		<linearGradient id="g59" x1="452.6" y1="223.2" x2="452.6" y2="91.4" gradientUnits="userSpaceOnUse">
			<stop offset="0" stop-color="#51074f"/>
			<stop offset="1" stop-color="#380055"/>
		</linearGradient>
		<linearGradient id="g60" x1="444" y1="219" x2="444" y2="97.4" gradientUnits="userSpaceOnUse">
			<stop offset="0" stop-color="#71074f"/>
			<stop offset="1" stop-color="#380055"/>
		</linearGradient>
		<radialGradient id="g61" cx="395.7" cy="248.7" r="4.9" gradientUnits="userSpaceOnUse">
			<stop offset="0" stop-color="#ff4700"/>
			<stop offset="1" stop-color="#000000"/>
		</radialGradient>
		<radialGradient id="g62" cx="330" cy="243.4" r="8.2" gradientUnits="userSpaceOnUse">
			<stop offset="0" stop-color="#ff4700"/>
			<stop offset="1" stop-color="#000000"/>
		</radialGradient>
		<radialGradient id="g63" cx="278.4" cy="226.3" r="19.9" gradientUnits="userSpaceOnUse">
			<stop offset="0" stop-color="#ff4700"/>
			<stop offset="1" stop-color="#000000"/>
		</radialGradient>
		<radialGradient id="g64" cx="720.9" cy="214" r="18.8" gradientUnits="userSpaceOnUse">
			<stop offset="0" stop-color="#ff4700"/>
			<stop offset="1" stop-color="#000000"/>
		</radialGradient>
		<radialGradient id="g65" cx="294.6" cy="247.9" r="5" gradientUnits="userSpaceOnUse">
			<stop offset="0" stop-color="#ff4700"/>
			<stop offset="1" stop-color="#000000"/>
		</radialGradient>
		<radialGradient id="g66" cx="704.6" cy="241.7" r="4.1" gradientUnits="userSpaceOnUse">
			<stop offset="0" stop-color="#ff4700"/>
			<stop offset="1" stop-color="#000000"/>
		</radialGradient>
		<radialGradient id="g67" cx="623.4" cy="179.1" r="1.5" gradientUnits="userSpaceOnUse">
			<stop offset="0" stop-color="#ff4700"/>
			<stop offset="1" stop-color="#000000"/>
		</radialGradient>
		<radialGradient id="g68" cx="662" cy="184.8" r="2.9" gradientUnits="userSpaceOnUse">
			<stop offset="0" stop-color="#ff4700"/>
			<stop offset="1" stop-color="#000000"/>
		</radialGradient>
		<radialGradient id="g69" cx="399.1" cy="244.5" r="2.3" gradientUnits="userSpaceOnUse">
			<stop offset="0" stop-color="#ff4700"/>
			<stop offset="1" stop-color="#000000"/>
		</radialGradient>
		<linearGradient id="g70" x1="375" y1="291.5" x2="375" y2="103.8" gradientUnits="userSpaceOnUse">
			<stop offset="0" stop-color="#3e0743"/>
			<stop offset="1" stop-color="#340031"/>
		</linearGradient>
		<radialGradient id="g71" cx="505.9" cy="197.8" r="84.2" gradientUnits="userSpaceOnUse">
			<stop offset="0" stop-color="#ffdb68"/>
			<stop offset="1" stop-color="#ffc2b9"/>
		</radialGradient>
		<radialGradient id="g72" cx="506.9" cy="285" r="58.1" gradientUnits="userSpaceOnUse">
			<stop offset="0" stop-color="#ff4700"/>
			<stop offset="1" stop-color="#79053b"/>
		</radialGradient>
		<radialGradient id="g73" cx="566.4" cy="196.3" r="5.2" gradientUnits="userSpaceOnUse">
			<stop offset="0" stop-color="#ff8484"/>
			<stop offset="1" stop-color="#724572"/>
		</radialGradient>
		<radialGradient id="g74" cx="446.8" cy="196.9" r="4.7" gradientUnits="userSpaceOnUse">
			<stop offset="0" stop-color="#ff8484"/>
			<stop offset="1" stop-color="#724572"/>
		</radialGradient>
		<radialGradient id="g75" cx="507" cy="106" r="66.8" gradientUnits="userSpaceOnUse">
			<stop offset="0" stop-color="#ff4700"/>
			<stop offset="1" stop-color="#79053b"/>
		</radialGradient>
		<linearGradient id="g76" x1="445.7" y1="290.9" x2="458" y2="270.5" gradientUnits="userSpaceOnUse">
			<stop offset="0" stop-color="#000000"/>
			<stop offset="1" stop-color="#ffe000"/>
		</linearGradient>
		<radialGradient id="g77" cx="500.2" cy="191.7" r="91.8" gradientUnits="userSpaceOnUse">
			<stop offset="0" stop-color="#ff4700"/>
			<stop offset="1" stop-color="#000000"/>
		</radialGradient>
		<radialGradient id="g78" cx="511.3" cy="52.4" r="85.3" gradientUnits="userSpaceOnUse">
			<stop offset="0" stop-color="#ff4700"/>
			<stop offset="1" stop-color="#000000"/>
		</radialGradient>
		<radialGradient id="g79" cx="511.3" cy="365.1" r="106" gradientUnits="userSpaceOnUse">
			<stop offset="0" stop-color="#ff4700"/>
			<stop offset="1" stop-color="#000000"/>
		</radialGradient>
	</defs>
	<style>
		.s0 { fill: #4f0057 } 
		.s1 { fill: #59348d } 
		.s2 { fill: url(#g1) } 
		.s3 { fill: url(#g2) } 
		.s4 { fill: url(#g3) } 
		.s5 { fill: url(#g4) } 
		.s6 { fill: url(#g5) } 
		.s7 { fill: url(#g6) } 
		.s8 { fill: url(#g7) } 
		.s9 { fill: url(#g8) } 
		.s10 { fill: url(#g9) } 
		.s11 { fill: url(#g10) } 
		.s12 { fill: url(#g11) } 
		.s13 { fill: url(#g12) } 
		.s14 { fill: url(#g13) } 
		.s15 { fill: url(#g14) } 
		.s16 { fill: url(#g15) } 
		.s17 { fill: url(#g16) } 
		.s18 { fill: url(#g17) } 
		.s19 { fill: url(#g18) } 
		.s20 { fill: url(#g19) } 
		.s21 { fill: url(#g20) } 
		.s22 { fill: url(#g21) } 
		.s23 { fill: url(#g22) } 
		.s24 { fill: url(#g23) } 
		.s25 { fill: url(#g24) } 
		.s26 { fill: url(#g25) } 
		.s27 { fill: url(#g26) } 
		.s28 { fill: url(#g27) } 
		.s29 { fill: url(#g28) } 
		.s30 { fill: url(#g29) } 
		.s31 { fill: url(#g30) } 
		.s32 { fill: url(#g31) } 
		.s33 { fill: url(#g32) } 
		.s34 { fill: url(#g33) } 
		.s35 { fill: url(#g34) } 
		.s36 { fill: #5d025f } 
		.s37 { fill: url(#g35) } 
		.s38 { fill: #5f1069 } 
		.s39 { opacity: .1;fill: #d477b0 } 
		.s40 { opacity: .1;fill: #794fb0 } 
		.s41 { opacity: .5;mix-blend-mode: multiply;fill: #68348d } 
		.s42 { fill: url(#g36) } 
		.s43 { fill: url(#g37) } 
		.s44 { fill: url(#g38) } 
		.s45 { fill: url(#g39) } 
		.s46 { fill: #791a6b } 
		.s47 { fill: #4a084c } 
		.s48 { fill: url(#g40) } 
		.s49 { fill: #a71861 } 
		.s50 { fill: url(#g41) } 
		.s51 { fill: url(#g42) } 
		.s52 { fill: url(#g43) } 
		.s53 { fill: #53146b } 
		.s54 { fill: url(#g44) } 
		.s55 { opacity: .5;mix-blend-mode: screen;fill: url(#g45) } 
		.s56 { opacity: .9;mix-blend-mode: multiply;fill: #a2649a } 
		.s57 { fill: #1e0027 } 
		.s58 { fill: url(#g46) } 
		.s59 { opacity: .9;mix-blend-mode: multiply;fill: #683e8d } 
		.s60 { fill: url(#g47) } 
		.s61 { fill: #0e0014 } 
		.s62 { fill: url(#g48) } 
		.s63 { fill: #5b296b } 
		.s64 { opacity: .6;fill: #0e0014 } 
		.s65 { fill: url(#g49) } 
		.s66 { fill: url(#g50) } 
		.s67 { fill: url(#g51) } 
		.s68 { fill: url(#g52) } 
		.s69 { fill: url(#g53) } 
		.s70 { fill: #4f004c } 
		.s71 { fill: url(#g54) } 
		.s72 { fill: url(#g55) } 
		.s73 { fill: #360046 } 
		.s74 { fill: #7d0566 } 
		.s75 { fill: #c83b66 } 
		.s76 { opacity: .9;mix-blend-mode: multiply;fill: #683e68 } 
		.s77 { fill: #1e072f } 
		.s78 { fill: url(#g56) } 
		.s79 { fill: #2d0048 } 
		.s80 { fill: url(#g57) } 
		.s81 { opacity: .9;mix-blend-mode: multiply;fill: url(#g58) } 
		.s82 { fill: url(#g59) } 
		.s83 { fill: url(#g60) } 
		.s84 { fill: #843175 } 
		.s85 { fill: #ffb586 } 
		.s86 { fill: #120020 } 
		.s87 { fill: #3b0019 } 
		.s88 { fill: #200034 } 
		.s89 { mix-blend-mode: screen;fill: url(#g61) } 
		.s90 { mix-blend-mode: screen;fill: url(#g62) } 
		.s91 { opacity: .5;mix-blend-mode: screen;fill: url(#g63) } 
		.s92 { opacity: .5;mix-blend-mode: screen;fill: url(#g64) } 
		.s93 { opacity: .5;fill: #c83b66 } 
		.s94 { mix-blend-mode: screen;fill: url(#g65) } 
		.s95 { opacity: .5;mix-blend-mode: screen;fill: url(#g66) } 
		.s96 { mix-blend-mode: screen;fill: url(#g67) } 
		.s97 { mix-blend-mode: screen;fill: url(#g68) } 
		.s98 { fill: #d1908e } 
		.s99 { fill: #905c8e } 
		.s100 { mix-blend-mode: screen;fill: url(#g69) } 
		.s101 { fill: url(#g70) } 
		.s102 { fill: url(#g71) } 
		.s103 { mix-blend-mode: screen;fill: url(#g72) } 
		.s104 { opacity: .9;mix-blend-mode: multiply;fill: #724572 } 
		.s105 { opacity: .6;mix-blend-mode: multiply;fill: url(#g73) } 
		.s106 { opacity: .6;mix-blend-mode: multiply;fill: url(#g74) } 
		.s107 { mix-blend-mode: screen;fill: url(#g75) } 
		.s108 { mix-blend-mode: screen;fill: url(#g76) } 
		.s109 { mix-blend-mode: screen;fill: url(#g77) } 
		.s110 { opacity: .3;mix-blend-mode: screen;fill: url(#g78) } 
		.s111 { opacity: .4;mix-blend-mode: screen;fill: url(#g79) } 
		.s112 { fill: #540038 } 
	</style>
	<g id="_Artboards_">
	</g>
	<g id="layer1">
		<g id="&lt;Clip Group&gt;">
			<path id="&lt;Path&gt;" class="s0" d="m1000 400h-1000v-400h1000z"/>
			<g id="&lt;Group&gt;" style="opacity: .5;mix-blend-mode: multiply">
				<path id="&lt;Path&gt;" class="s1" d="m439.4 351.6l-11.1 0.2-12.5-268.1 12.8 0.2z"/>
				<path id="&lt;Path&gt;" class="s1" d="m468.8 351.1l-11 0.2-7.9-267.1 12.6 0.2z"/>
				<path id="&lt;Path&gt;" class="s1" d="m498.1 350.7l-11 0.1-3.5-266.1 12.6 0.2z"/>
				<path id="&lt;Path&gt;" class="s1" d="m527.1 350.2l-10.9 0.2 0.9-265.2 12.5 0.2z"/>
				<path id="&lt;Path&gt;" class="s1" d="m555.9 349.8l-10.8 0.1 5.3-264.1 12.3 0.1z"/>
				<path id="&lt;Path&gt;" class="s1" d="m587 349.3l-10.7 0.1 9.9-263.1 12.3 0.2z"/>
			</g>
			<path id="&lt;Path&gt;" class="s2" d="m602.7 88.7l164.4-88.7h232.9v400h-211.3l-197.9-49.8z"/>
			<path id="&lt;Path&gt;" class="s3" d="m413.2 83.7l-180.3-83.7h-232.9v400.2l211.3-0.2 213.8-46.8z"/>
			<g id="&lt;Group&gt;" style="opacity: .3;mix-blend-mode: multiply">
				<path id="&lt;Path&gt;" class="s4" d="m109.3 422.6l-18.6 4.3-14.3-506 18.6 9z"/>
				<path id="&lt;Path&gt;" class="s5" d="m41.7 422.6l-18.7 4.3-14.2-506 18.6 9z"/>
				<path id="&lt;Path&gt;" class="s6" d="m154.5 412l-16.2 3.8-14.2-471.9 16.3 7.8z"/>
				<path id="&lt;Path&gt;" class="s7" d="m194 402.8l-14.2 3.3-13.9-442.1 14.3 6.9z"/>
				<path id="&lt;Path&gt;" class="s8" d="m228.9 394.6l-12.5 3-13.7-415.8 12.7 6.1z"/>
				<path id="&lt;Path&gt;" class="s9" d="m260 387.4l-11.2 2.6-13.4-392.5 11.3 5.5z"/>
				<path id="&lt;Path&gt;" class="s10" d="m287.7 380.9l-10 2.4-13.1-371.7 10.2 4.9z"/>
				<path id="&lt;Path&gt;" class="s11" d="m312.7 375.1l-9 2.1-12.8-352.9 9.2 4.4z"/>
				<path id="&lt;Path&gt;" class="s12" d="m335.3 369.8l-8.2 1.9-12.4-335.9 8.3 4z"/>
				<path id="&lt;Path&gt;" class="s13" d="m355.9 365l-7.5 1.8-12.1-320.6 7.6 3.7z"/>
				<path id="&lt;Path&gt;" class="s14" d="m374.7 360.6l-6.8 1.6-11.9-306.5 7 3.4z"/>
				<path id="&lt;Path&gt;" class="s15" d="m391.9 356.6l-6.3 1.5-11.5-293.7 6.4 3.1z"/>
				<path id="&lt;Path&gt;" class="s16" d="m407.7 352.9l-5.7 1.4-11.3-281.9 5.9 2.9z"/>
				<path id="&lt;Path&gt;" class="s17" d="m422.4 349.5l-5.4 1.3-10.9-271 5.4 2.7z"/>
			</g>
			<g id="&lt;Group&gt;" style="opacity: .3;mix-blend-mode: multiply">
				<path id="&lt;Path&gt;" class="s18" d="m904.5 425.3l18.9 4.4 14.5-515.2-19 9.6z"/>
				<path id="&lt;Path&gt;" class="s19" d="m955.3 425.3l18.9 4.4 14.5-515.2-19 9.6z"/>
				<path id="&lt;Path&gt;" class="s20" d="m858.7 414.7l16.4 3.8 14.3-479.3-16.4 8.3z"/>
				<path id="&lt;Path&gt;" class="s21" d="m818.9 405.3l14.3 3.4 14-448.1-14.4 7.4z"/>
				<path id="&lt;Path&gt;" class="s22" d="m783.8 397.2l12.7 2.9 13.7-420.6-12.8 6.5z"/>
				<path id="&lt;Path&gt;" class="s23" d="m752.8 389.9l11.2 2.6 13.4-396.3-11.3 5.7z"/>
				<path id="&lt;Path&gt;" class="s24" d="m725.1 383.4l10 2.4 13.1-374.8-10.2 5.2z"/>
				<path id="&lt;Path&gt;" class="s25" d="m700.2 377.6l9 2.1 12.7-355.3-9.1 4.6z"/>
				<path id="&lt;Path&gt;" class="s26" d="m677.8 372.4l8.1 1.9 12.4-337.9-8.3 4.2z"/>
				<path id="&lt;Path&gt;" class="s27" d="m657.4 367.7l7.4 1.7 12-322.1-7.5 3.9z"/>
				<path id="&lt;Path&gt;" class="s28" d="m638.9 363.3l6.7 1.6 11.7-307.6-6.9 3.5z"/>
				<path id="&lt;Path&gt;" class="s29" d="m621.9 359.4l6.2 1.4 11.3-294.4-6.3 3.2z"/>
				<path id="&lt;Path&gt;" class="s30" d="m606.3 355.7l5.7 1.3 11.1-282.3-5.8 3z"/>
				<path id="&lt;Path&gt;" class="s31" d="m591.9 352.4l5.3 1.2 10.7-271.2-5.3 2.7z"/>
			</g>
			<g id="&lt;Group&gt;">
				<path id="&lt;Path&gt;" class="s32" d="m764.9 0l-22.8 389.3-13.3 0.7 14.4-390z"/>
				<path id="&lt;Path&gt;" class="s33" d="m743.2 0l-31.5 17.4-11.5 362.7 28.6 9.9z"/>
			</g>
			<g id="&lt;Group&gt;">
				<path id="&lt;Path&gt;" class="s34" d="m231.9 0l26 390 13.3 1.4-17.6-391.4z"/>
				<path id="&lt;Path&gt;" class="s35" d="m253.6 0l31.4 16.2 14.9 367.4-28.7 7.8z"/>
			</g>
			<path id="&lt;Path&gt;" class="s36" d="m424.7 349.2l-2.2-54.4 170.8-3-2.3 53.5z"/>
			<g id="&lt;Group&gt;">
				<path id="&lt;Path&gt;" class="s37" d="m1000 313.2l-406.7-21.4-172.3 3-421 19.2v86.2l158.9-0.2 98.5-17.7 13.5 2.2 28.8-5.3-0.1-3.3 125.1-26.7 166.3-3.9 109.5 24.5-0.1 4.1 28.4 7.2 13.9-1.9 123.9 20.8h133.4z"/>
				<path id="&lt;Path&gt;" class="s38" d="m267.3 303.6l29.3-1.2 3.1 76.8-28.8 5.3z"/>
				<path id="&lt;Path&gt;" class="s38" d="m702.7 300.4l29.4 2-3.3 78.7-28.4-7.2z"/>
				<path id="&lt;Path&gt;" class="s39" d="m1000 327.8l-253.2-18.5-15-0.1-29.2-3.1v-3.6l-109.5-6.8 0.2-3.9 109.5 5.8-0.1 2.8 29.4 2 15.3-2.5 252.6 13.3z"/>
				<path id="&lt;Path&gt;" class="s39" d="m0 327.5l252.6-17.7h14.7l29.6-1.7v-3.4l125.5-6.1 0.1-3.8-126 5.7 0.1 1.9-29.3 1.2-15.2-1.1-252.1 11.5z"/>
				<path id="&lt;Path&gt;" class="s40" d="m422.5 294.8l-0.1 3.8 170.7-2.9 0.2-3.9z"/>
				<path id="&lt;Path&gt;" class="s41" d="m422.5 294.8l2.2 54.4 166.3-3.9 2.3-53.5z"/>
			</g>
			<path id="&lt;Path&gt;" class="s42" d="m590.8 350.2l197.9 49.8h-577.4l213.8-46.8z"/>
			<path id="&lt;Path&gt;" class="s43" d="m232.9 0l180.3 83.7 189.5 5 164.4-88.7z"/>
			<path id="&lt;Path&gt;" class="s44" d="m158.9 400l98.5-17.7 13.5 2.2 28.8-5.3-0.1-3.3 125.1-26.7 166.3-3.9 109.5 24.5-0.1 4.1 28.4 7.2 13.9-1.9 123.9 20.8h-77.9l-46.6-10.7-16.5 0.7-29.1-7.1 2.6-5.7-108.3-27-165.7 3-125.2 27.4 1.3 3.5-30 8.9-13.3-3-48 10z"/>
			<g id="&lt;Group&gt;">
				<path id="&lt;Path&gt;" class="s45" d="m425.1 349.5l-1.4 3.8-123.8 26.3-0.3-3.7z"/>
				<path id="&lt;Path&gt;" class="s46" d="m270.9 384.5l1.8 6.3 28.3-7.2-1.3-4.4z"/>
				<path id="&lt;Path&gt;" class="s47" d="m257.4 382.3l1.8 6.5-52.5 11.2h-47.8z"/>
				<path id="&lt;Path&gt;" class="s47" d="m742.7 379.2l-1.6 8.3 52.7 12.5h72.8z"/>
				<path id="&lt;Path&gt;" class="s46" d="m728.8 381.1l-2.4 7.6-29.5-6.6 3.5-8.2z"/>
				<path id="&lt;Path&gt;" class="s48" d="m700.5 369.8l-108.3-24.2 1.3 6.4 106 23.9 0.9-2z"/>
				<path id="&lt;Path&gt;" class="s49" d="m593.1 351.7l-2.3-5.7-165.7 3.5-0.8 3.9z"/>
			</g>
			<path id="&lt;Path&gt;" class="s50" d="m743.2 0l-31.5 17.4-0.4 12.7-108.6 58.6-189.5-5-127.8-59.3-0.4-8.2-31.4-16.2h23.1l11.9 12.4-3.1 4.3 0.1 3.1 129.1 59.5 188 5.8 108.7-60.4-0.7-13 16.1-11.7z"/>
			<g id="&lt;Group&gt;">
				<path id="&lt;Path&gt;" class="s51" d="m414.7 79.3l-1.5 3-127.9-59.3-0.2-5.8z"/>
				<path id="&lt;Path&gt;" class="s52" d="m602.7 85.1l0.2 3 108.4-58.9 0.1-5z"/>
				<path id="&lt;Path&gt;" class="s53" d="m289.5 11.1l-3.4 4.7-29.9-15.8h20.5z"/>
				<path id="&lt;Path&gt;" class="s53" d="m708.8 11.4l2.2 4.9 30.3-16.3h-15.4z"/>
			</g>
			<g id="&lt;Group&gt;">
				<path id="&lt;Path&gt;" class="s54" d="m142.8 191.7l51.2 5.7 3.9 82.9 3.3 4.9-53.1 6.6z"/>
				<path id="&lt;Path&gt;" class="s55" d="m197.9 280.3l-49.8 11.5 53.1-6.6z"/>
				<path id="&lt;Path&gt;" class="s56" d="m159.1 269.2l-3.8-51.6h32.6l0.1 48.3z"/>
			</g>
			<path id="&lt;Path&gt;" class="s57" d="m389.3 122.3l7.9-9.1-7.9 9.6z"/>
			<path id="&lt;Path&gt;" class="s57" d="m327.9 102.2l-10.1-13.5 10.1 14.2z"/>
			<g id="&lt;Group&gt;" style="mix-blend-mode: multiply">
				<g id="&lt;Group&gt;">
					<path id="&lt;Path&gt;" class="s57" d="m617.3 77.8l-212.2-3v-0.2l212.2 2.9z"/>
				</g>
				<g id="&lt;Group&gt;">
					<path id="&lt;Path&gt;" class="s57" d="m636.2 66.5l-253.8-1.9v-0.3l253.8 1.9z"/>
				</g>
				<g id="&lt;Group&gt;">
					<path id="&lt;Path&gt;" class="s57" d="m360.8 53.6v-0.2l305.5-3.7v0.2z"/>
				</g>
				<g id="&lt;Group&gt;">
					<path id="&lt;Path&gt;" class="s57" d="m700.2 30.6l-396.1-4.1v-0.3l396.1 4.1z"/>
				</g>
				<g id="&lt;Group&gt;">
					<path id="&lt;Path&gt;" class="s57" d="m511 82.3l-1.8-82.3h0.2l1.9 82.3z"/>
				</g>
				<g id="&lt;Group&gt;">
					<path id="&lt;Path&gt;" class="s57" d="m557.2 83.8l-0.2-0.2 96.7-83.7 0.2 0.2z"/>
				</g>
				<g id="&lt;Group&gt;">
					<path id="&lt;Path&gt;" class="s57" d="m454.8 80.6l-61.3-80.5 0.2-0.2 61.3 80.6z"/>
				</g>
			</g>
			<g id="&lt;Group&gt;">
				<path id="&lt;Path&gt;" class="s58" d="m780.2 196.7l42.2-3.7v68.9l-42.2 6.1z"/>
				<path id="&lt;Path&gt;" class="s56" d="m790.8 242.6v-31.1l19.4-2.3 2.1 33.4z"/>
			</g>
			<g id="&lt;Group&gt;" style="opacity: .5;mix-blend-mode: soft-light">
				<g id="&lt;Group&gt;">
					<path id="&lt;Path&gt;" class="s57" d="m259.3 400.2l-0.1-0.4 180.4-47.2 0.2 0.5z"/>
				</g>
				<g id="&lt;Group&gt;">
					<path id="&lt;Path&gt;" class="s57" d="m325.1 400.2l-0.2-0.4 130.9-47 0.1 0.4z"/>
				</g>
				<g id="&lt;Group&gt;">
					<path id="&lt;Path&gt;" class="s57" d="m500.3 400h-0.6v-48h0.5z"/>
				</g>
				<g id="&lt;Group&gt;">
					<path id="&lt;Path&gt;" class="s57" d="m367.6 400.2l-0.3-0.4 97-47.4 0.3 0.5z"/>
				</g>
				<g id="&lt;Group&gt;">
					<path id="&lt;Path&gt;" class="s57" d="m413.3 400.2l-0.3-0.4 60.6-47.6 0.4 0.4z"/>
				</g>
				<g id="&lt;Group&gt;">
					<path id="&lt;Path&gt;" class="s57" d="m469.1 400.1l-0.5-0.2 15.2-47.6 0.5 0.2z"/>
				</g>
				<g id="&lt;Group&gt;">
					<path id="&lt;Path&gt;" class="s57" d="m743 400.2l-177.1-49.2 0.2-0.5 177 49.3z"/>
				</g>
				<g id="&lt;Group&gt;">
					<path id="&lt;Path&gt;" class="s57" d="m677.2 400.2l-126.4-48.7 0.2-0.4 126.4 48.7z"/>
				</g>
				<g id="&lt;Group&gt;">
					<path id="&lt;Path&gt;" class="s57" d="m634.7 400.2l-94.8-48.8 0.2-0.5 94.9 48.9z"/>
				</g>
				<g id="&lt;Group&gt;">
					<path id="&lt;Path&gt;" class="s57" d="m589 400.2l-60.7-47.6 0.4-0.4 60.6 47.6z"/>
				</g>
				<g id="&lt;Group&gt;">
					<path id="&lt;Path&gt;" class="s57" d="m533.2 400.1l-15.2-47.6 0.5-0.2 15.2 47.6z"/>
				</g>
				<g id="&lt;Group&gt;">
					<path id="&lt;Path&gt;" class="s57" d="m525.9 376.7v-0.5l32.6-0.5v0.5z"/>
				</g>
				<g id="&lt;Group&gt;">
					<path id="&lt;Path&gt;" class="s57" d="m456.6 366.1l-16.2-1.4v-0.5l16.3 1.4z"/>
				</g>
				<g id="&lt;Group&gt;">
					<path id="&lt;Path&gt;" class="s57" d="m425.7 390.4v-0.5l46.4-0.4v0.5z"/>
				</g>
			</g>
			<g id="&lt;Group&gt;">
				<path id="&lt;Path&gt;" class="s59" d="m194.2 184.6l2.2-107.6-65.8-24.1 5.4 128.2z"/>
				<path id="&lt;Path&gt;" class="s60" d="m199 183.1l2.2-107.6-65.8-24.1 5.4 128.2z"/>
				<path id="&lt;Path&gt;" class="s61" d="m131.8 57.8l3.6-6.4 5.4 128.2-2.2-1.4z"/>
				<path id="&lt;Path&gt;" class="s61" d="m195.7 177.6l-52.9-4.4-3.1-113.7 56.7 19.5z"/>
				<path id="&lt;Path&gt;" class="s62" d="m190.3 173.6l0.9-92.2-51.4-18.5 3 106.3z"/>
				<path id="&lt;Path&gt;" class="s63" d="m197.9 182.1l-2.2-4.5-52.9-4.4v5.6z"/>
				<path id="&lt;Path&gt;" class="s64" d="m196.4 79l-5.2 5.9-51.3-15.6-0.2-9.8z"/>
				<path id="&lt;Path&gt;" class="s64" d="m176.3 143.2l0.7-40.6-23-5.3 3 44.1z"/>
			</g>
			<g id="&lt;Group&gt;">
				<path id="&lt;Path&gt;" class="s59" d="m104.7 221.8l2.2-96.6-65.8-20 4.4 116.2z"/>
				<path id="&lt;Path&gt;" class="s65" d="m109.5 220.3l2.2-96.6-65.8-20.1 4.4 116.2z"/>
				<path id="&lt;Path&gt;" class="s61" d="m42.3 110.1l3.6-6.5 4.4 116.2-2.2-1.4z"/>
				<path id="&lt;Path&gt;" class="s61" d="m106.2 214.9l-53.9-1.4-2.1-101.8 56.7 15.5z"/>
				<path id="&lt;Path&gt;" class="s66" d="m100.8 210.8l0.9-81.2-51.4-14.5 2 94.3z"/>
				<path id="&lt;Path&gt;" class="s63" d="m108.4 219.3l-2.2-4.4-53.9-1.4v5.5z"/>
				<path id="&lt;Path&gt;" class="s64" d="m106.9 127.2l-5.1 5.9-51.3-11.6-0.3-9.8z"/>
				<path id="&lt;Path&gt;" class="s64" d="m97.6 197.9l1.2-56.4-40.6-9.5 2.5 65.6z"/>
			</g>
			<g id="&lt;Group&gt;">
				<path id="&lt;Path&gt;" class="s67" d="m401.5 358.4l-4.3-245.2-79.4-24.5 17.2 284.2z"/>
				<path id="&lt;Path&gt;" class="s68" d="m393.6 360.1l-4.3-237.8-61.4-20.1 13.5 269.3z"/>
				<path id="&lt;Path&gt;" class="s69" d="m317.8 88.7h-3.2l17 280.4 3.4 3.8z"/>
				<path id="&lt;Path&gt;" class="s70" d="m328.9 122.3l35.8 9.4 5.1 233.6-28.4 6.2z"/>
				<path id="&lt;Path&gt;" class="s71" d="m317.8 88.7l10.1 13.5 1 0.3z"/>
				<path id="&lt;Path&gt;" class="s72" d="m389.3 122.3l7.9-9.1-7.9 10z"/>
				<g id="&lt;Group&gt;">
					<path id="&lt;Compound Path&gt;" fill-rule="evenodd" class="s73" d="m363 255.5h-14v-0.3l-6.3-123.2 19.9 4.2v0.3zm-13.3-0.8h12.5l-0.4-118-18.4-3.8z"/>
				</g>
				<g id="&lt;Group&gt;">
					<path id="&lt;Path&gt;" class="s73" d="m343.5 255.5h-7.9v-0.7h7.1l-5.3-123.7-8.6-2.4 0.2-0.7 9.1 2.6v0.2z"/>
				</g>
				<g id="&lt;Group&gt;">
					<path id="&lt;Path&gt;" class="s73" d="m337.6 295.2l-0.1-0.8 27.2-3-1.1-30.8h-27.8v-0.8h28.5l1.2 32.3z"/>
				</g>
				<g id="&lt;Group&gt;">
					<path id="&lt;Path&gt;" class="s73" d="m341.3 367.1l-0.2-0.7 26-4.5-2.1-63.8-27.1 2.9-0.1-0.8 27.9-3 2.1 65.4h-0.3z"/>
				</g>
				<path id="&lt;Path&gt;" class="s74" d="m365.4 297.7l-0.3 1.7-27.2 2.8v-1.6z"/>
				<path id="&lt;Path&gt;" class="s74" d="m363.9 260.2l-0.9 1.2h-27.1l-0.1-1.2z"/>
				<path id="&lt;Path&gt;" class="s75" d="m338.6 261.4l-0.8-1.2h7.8l0.5 1.2z"/>
				<path id="&lt;Path&gt;" class="s75" d="m342.1 300.2l1.2 1.4 3.6-0.3-1-1.5z"/>
			</g>
			<path id="&lt;Path&gt;" class="s76" d="m272.7 390.8l-34.5 3.3-9.5-211.3-146.1 35.7-16.9 181.7h-65.7v-400.2h253.6l17.3 384.5z"/>
			<g id="&lt;Group&gt;">
				<path id="&lt;Path&gt;" class="s59" d="m798.6 177.5l-2.3-107.6 65.9-24-5.5 128.2z"/>
				<path id="&lt;Path&gt;" class="s77" d="m793.7 176l-2.2-107.6 65.9-24-5.5 128.2z"/>
				<path id="&lt;Path&gt;" class="s61" d="m860.9 50.8l-3.5-6.4-5.5 128.2 2.2-1.5z"/>
				<path id="&lt;Path&gt;" class="s61" d="m797 170.6l52.9-4.4 3.2-113.8-56.8 19.5z"/>
				<path id="&lt;Path&gt;" class="s78" d="m802.4 166.6l-0.9-92.3 51.4-18.5-3 106.4z"/>
				<path id="&lt;Path&gt;" class="s79" d="m794.9 175l2.1-4.4 52.9-4.4v5.5z"/>
				<path id="&lt;Path&gt;" class="s64" d="m796.3 71.9l5.2 5.9 51.3-15.6 0.3-9.8z"/>
				<path id="&lt;Path&gt;" class="s64" d="m808.2 153.4l-1.2-71.1 40.5-9.4-5.4 77.3z"/>
			</g>
			<g id="&lt;Group&gt;">
				<path id="&lt;Path&gt;" class="s59" d="m880.8 116l-2.3-57.5 65.9-24.1-3.5 72.2z"/>
				<path id="&lt;Path&gt;" class="s77" d="m876 114.5l-2.3-57.5 65.9-24.1-3.5 72.2z"/>
				<path id="&lt;Path&gt;" class="s61" d="m943.2 39.3l-3.6-6.4-3.5 72.2 2.2-1.4z"/>
				<path id="&lt;Path&gt;" class="s61" d="m879.2 109.1l54.9-10.4 1.2-57.7-56.8 19.5z"/>
				<path id="&lt;Path&gt;" class="s80" d="m884.6 105.1l-0.8-42.3 51.3-18.4-1 50.3z"/>
				<path id="&lt;Path&gt;" class="s79" d="m877.1 113.6l2.1-4.5 54.9-10.4v5.6z"/>
				<path id="&lt;Path&gt;" class="s64" d="m878.5 60.5l5.2 5.9 51.3-15.6 0.3-9.8z"/>
				<path id="&lt;Path&gt;" class="s64" d="m890.5 92l-1.3-21.2 39.5-14.4-2.4 27.3z"/>
			</g>
			<path id="&lt;Path&gt;" class="s81" d="m291 154.6l39.3-4.1 0.8 14.5 24.9-1.5 7.1 203.3 30.5-6.7-4.1-227.6 18.5-4.2 12.2 226 91.1-1.6 82.2-0.7 14.4-221.3 99.3 28.8 0.2-6.1 29.9 6.1-8.5 221.6-3.2 8.9 29.4 1.5 10.5-219.4 145.7 20.6 10 207.3h78.8l5.1-400h-751.5l6.6 147 30.5-0.9z"/>
			<g id="&lt;Group&gt;">
				<path id="&lt;Path&gt;" class="s82" d="m621.9 223.2l1.2-115.6 44-16.2-6.1 131.7z"/>
				<path id="&lt;Path&gt;" class="s61" d="m669 94.2l-1.9-2.8-6.1 131.7 4-2.3z"/>
				<path id="&lt;Path&gt;" class="s61" d="m623.1 220.8l36-2.8 5.9-123.5-39.5 13.6z"/>
				<path id="&lt;Path&gt;" class="s83" d="m628.3 219l2.4-108.8 34.1-12.8-5.7 120.6z"/>
				<path id="&lt;Path&gt;" class="s84" d="m623.1 220.8l5.2-1.8 30.8-1v2z"/>
				<path id="&lt;Path&gt;" class="s64" d="m625.5 108.1l5.1 5.1 34.1-10.4 0.3-8.3z"/>
				<path id="&lt;Path&gt;" class="s85" d="m630.5 116.4l22.2 1.7-3.3 99.9-21.1 1z"/>
			</g>
			<g id="&lt;Group&gt;">
				<path id="&lt;Path&gt;" class="s86" d="m428.5 390l43.3 0.9 0.5-1.5z"/>
				<path id="&lt;Path&gt;" class="s86" d="m457.3 365.4l-16.2-0.8 15.9 1.3z"/>
				<path id="&lt;Path&gt;" class="s86" d="m476.4 400l1-3.5-0.5 3.5z"/>
				<path id="&lt;Path&gt;" class="s86" d="m369 400l32.5-16.6-34.3 16.6z"/>
				<path id="&lt;Path&gt;" class="s86" d="m406 381.4l2.3-1 1.6-1.1z"/>
				<path id="&lt;Path&gt;" class="s86" d="m500 359.2l-0.7 14.8 0.6 15z"/>
				<path id="&lt;Path&gt;" class="s86" d="m413.2 377.7l0.9 1.9-0.5-2.1z"/>
				<path id="&lt;Path&gt;" class="s86" d="m530 389l20.9 1.9-20.7-1.1z"/>
				<path id="&lt;Path&gt;" class="s86" d="m559.2 376.5h-32.2l31.1-1.1z"/>
				<path id="&lt;Path&gt;" class="s86" d="m597.8 369.4l2.1 1.6 28.3 10.1z"/>
				<path id="&lt;Path&gt;" class="s86" d="m593.3 400l-31.2-21.2 27 21.2z"/>
				<path id="&lt;Path&gt;" class="s86" d="m677.3 400l-40.6-15.6 36.9 15.6z"/>
				<path id="&lt;Path&gt;" class="s86" d="m100 309.5l65.9-1.9 68.4-4.3z"/>
				<path id="&lt;Path&gt;" class="s87" d="m732.1 302.4l-29.2-1.1-0.2-0.9z"/>
				<path id="&lt;Path&gt;" class="s86" d="m761.9 300.7l13.8 1.7 48.8 1.6z"/>
				<path id="&lt;Path&gt;" class="s86" d="m213.3 304.7l-8.8-268.9 9.5 268.8z"/>
				<path id="&lt;Path&gt;" class="s88" d="m688.8 296.8l3.4-94.7-5.2 94.6z"/>
				<path id="&lt;Path&gt;" class="s86" d="m726.4 388.7l-29.5-6.6 28.2 7z"/>
				<path id="&lt;Path&gt;" class="s86" d="m272.7 390.8l28.3-7.2-26.5 7.2z"/>
				<path id="&lt;Path&gt;" class="s86" d="m270.9 384.5l28.8-5.3-28.8 4.4z"/>
			</g>
			<g id="&lt;Group&gt;">
				<path id="&lt;Path&gt;" class="s75" d="m309.9 377.4l-2.1-3.2 6.8-1.5 6.5 2.4z"/>
				<path id="&lt;Path&gt;" class="s75" d="m320.2 371.5l3.5 3 1.9-0.4-4.5-2.8z"/>
				<path id="&lt;Path&gt;" class="s75" d="m402.8 353.9l3.2 3.1 3.9-0.8-1.2-3.5z"/>
				<path id="&lt;Path&gt;" class="s89" d="m398.5 189.7l-7.8 5.3 1.9 112.6h8z"/>
				<path id="&lt;Path&gt;" class="s90" d="m321.8 154.6l8.8 4 7.6 159.5-5.7 14.1z"/>
				<path id="&lt;Path&gt;" class="s91" d="m258.5 109.1l10.7 231.1 29.1 3.2-8.8-226.7z"/>
				<path id="&lt;Path&gt;" class="s92" d="m708.8 109.5l-6.7 216.6 28.6 6.1 9-236.4z"/>
				<path id="&lt;Path&gt;" class="s93" d="m273.8 383.9l7.5 4.7 11.3-3-3.9-4.4z"/>
				<path id="&lt;Path&gt;" class="s94" d="m299.7 379.2l-10.2-262.5c0 0 7.4 234.1 10.2 262.5z"/>
				<path id="&lt;Path&gt;" class="s95" d="m708.8 109.5l-8.4 264.4c0 0 6.5-125.9 8.4-264.4z"/>
				<path id="&lt;Path&gt;" class="s75" d="m614.7 355.1l4.3-3.5 24.9 5.4-2.2 4.2z"/>
				<path id="&lt;Path&gt;" class="s75" d="m697.2 381.3l3 0.5 4.4-6.9-4.2-1z"/>
				<path id="&lt;Path&gt;" class="s96" d="m623.1 135.1l1.8 0.5-1.8 85.2-1.2 2.4z"/>
				<path id="&lt;Path&gt;" class="s97" d="m665 147.3l-2.5-0.7-3.4 73.4 1.9 3.1z"/>
				<path id="&lt;Path&gt;" class="s75" d="m642.4 361.3l3.5-3.7 3.4 0.8-5.4 3.2z"/>
			</g>
			<g id="&lt;Group&gt;" style="opacity: .5;mix-blend-mode: multiply">
				<path id="&lt;Path&gt;" class="s98" d="m566 364.9l11.1 24.1 14.8 10.1-17.9-30.4z"/>
				<path id="&lt;Path&gt;" class="s98" d="m583.3 373.5l14.5 26.6 5.9-0.1-19.1-25.9z"/>
				<path id="&lt;Path&gt;" class="s98" d="m634.9 400l-41.6-21.4 24.6-1.2 54.5 22.6z"/>
				<path id="&lt;Path&gt;" class="s98" d="m559.2 376.5l-5.3 23.5h2.7l3.2-23z"/>
				<path id="&lt;Path&gt;" class="s98" d="m561.4 378.2l-0.4 21.8h12.5l-2.5-14.2z"/>
				<path id="&lt;Path&gt;" class="s98" d="m521.9 363.7l24.5 2.8 11.7 8.9-32.2 1z"/>
				<path id="&lt;Path&gt;" class="s98" d="m472.3 389.4l7.4-23.5-29.3 4.9-19 14.9 43.8-13-45.8 14.5-2.7 2.2z"/>
				<path id="&lt;Path&gt;" class="s98" d="m455.9 366.5l26-7.3 0.3-1-24.9 6.7z"/>
				<path id="&lt;Path&gt;" class="s98" d="m413.2 400l57.2-5-1.6 5z"/>
				<path id="&lt;Path&gt;" class="s98" d="m367.4 400l34.1-27.8-2.3 0.7-35.7 27.1z"/>
				<path id="&lt;Path&gt;" class="s98" d="m372.4 397.5l39.4-28.7 9.7-2.9-31.8 23.5z"/>
				<path id="&lt;Path&gt;" class="s98" d="m360.8 387.2l-8.1 12.8-6.6 0.1 6.3-10z"/>
				<path id="&lt;Path&gt;" class="s99" d="m414.7 27.7l18.9 24.9 76.9-0.9-0.3-9.8-70.8-1.7h69.9l0.6-11.8z"/>
				<path id="&lt;Path&gt;" class="s99" d="m509.3 0l0.6 28.4 109.7 1.2 34.2-29.6z"/>
				<path id="&lt;Path&gt;" class="s99" d="m511 76.2v-1.5l-67.7-9.3 7.1 9.9z"/>
				<path id="&lt;Path&gt;" class="s99" d="m564.9 76.9l12.8-11 58.5 0.5-20.4 11.4z"/>
			</g>
			<g id="&lt;Group&gt;" style="opacity: .3;mix-blend-mode: multiply">
				<path id="&lt;Path&gt;" class="s98" d="m238 385.8l-2.7-59.9-39.1 12.6v54.8z"/>
				<path id="&lt;Path&gt;" class="s98" d="m190.6 394.3l-4.2-27.8h-24.3l-3.2 33.5z"/>
				<path id="&lt;Path&gt;" class="s98" d="m265.6 266.8l8.2 9.1 8.2 106.4-11.1 2.2z"/>
				<path id="&lt;Path&gt;" class="s98" d="m283.5 366.8l-1.5-21.5 4.3-3.3 0.9 24.8z"/>
				<path id="&lt;Path&gt;" class="s98" d="m310.9 325.6l3.7 47.1 17-3.6-2.9-48.6z"/>
				<path id="&lt;Path&gt;" class="s98" d="m310.9 351.8l-5.4-15.3-4.5 2 1.7 13.3z"/>
				<path id="&lt;Path&gt;" class="s98" d="m780.2 385.8l2.8-73.8 50.1 3.6 0.7 74.3h6.8l13.8-72.7 14.5 1-16.7 80.9z"/>
				<path id="&lt;Path&gt;" class="s98" d="m773.5 384.4l-9.9-73.9-4.7-0.3 11 73.6z"/>
				<path id="&lt;Path&gt;" class="s98" d="m732.1 302.4l4.4-123.3-7.7 10.5-3.7 108.1-7.7-2.9-3.6-43.8-9.4-4.1-1.7 53.5z"/>
				<path id="&lt;Path&gt;" class="s98" d="m730.3 342l-29.4 15-0.5 16.9 28.4 7.2z"/>
				<path id="&lt;Path&gt;" class="s98" d="m693.4 358.5v-8.6l-8-4 2.6 14.7z"/>
				<path id="&lt;Path&gt;" class="s98" d="m696.5 368.9l-3.1-45.6 8.7-8-1.6 54.5z"/>
			</g>
			<path id="&lt;Path&gt;" class="s100" d="m397.5 130.7l4 227.7c0 0-6.8-183.7-4-227.7z"/>
			<g id="&lt;Group&gt;">
				<g id="&lt;Group&gt;">
					<path id="&lt;Path&gt;" class="s101" d="m445.7 291.2l-5.5-184.6 133.6-2.8-5.6 187.7z"/>
					<path id="&lt;Path&gt;" class="s102" d="m451.5 283.4h109.7l5.6-171.2-121.7 1.7z"/>
					<path id="&lt;Path&gt;" class="s103" d="m561.2 283.4l3.8 3.1-116.2-0.8 2.7-2.3z"/>
					<path id="&lt;Path&gt;" class="s104" d="m445.1 113.9l-3-5.7 129.5-2.2-4.8 6.2z"/>
					<path id="&lt;Path&gt;" class="s105" d="m571.6 106l-6.6 180.5-3.8-3.1 5.6-171.2z"/>
					<path id="&lt;Path&gt;" class="s106" d="m442.1 108.2l6.7 177.5 2.7-2.3-6.4-169.5z"/>
					<path id="&lt;Path&gt;" class="s107" d="m440.2 106.6l1.9 1.6 129.5-2.2 2.2-2.2z"/>
				</g>
				<path id="&lt;Mesh&gt;" class="s108" d="m445.7 290.9q6.4-0.1 12.8-0.2-0.2-10-0.5-20.2-6.4 0.1-12.9 0.2 0.3 10.2 0.6 20.2zm-0.6-20.2q6.5-0.1 12.9-0.2-0.2-7.5-0.3-15.1-6.5 0.1-13 0.2 0.2 7.6 0.4 15.1zm-0.4-15.1q6.5-0.1 13-0.2-0.7-28.3-1.4-58.2-6.7 0.1-13.4 0.2 0.9 29.8 1.8 58.2zm-1.8-58.2q6.7-0.1 13.4-0.2-0.6-26.8-1.3-54.9-6.8 0.1-13.7 0.1 0.8 28.2 1.6 55zm-1.6-55q6.9 0 13.7-0.1-0.2-8.3-0.4-16.7-6.9 0.1-13.8 0.2 0.3 8.4 0.5 16.6zm-0.5-16.6q6.9-0.1 13.8-0.2-0.2-8.1-0.4-16.4-6.9 0.1-13.9 0.2 0.3 8.2 0.5 16.4zm17.7 164.9q8.3-0.1 16.6-0.2-0.1-10-0.3-20.2-8.4 0.1-16.8 0.2 0.3 10.2 0.5 20.2zm-0.5-20.2q8.4-0.1 16.8-0.2-0.1-7.5-0.2-15.2-8.5 0.2-16.9 0.3 0.1 7.6 0.3 15.1zm-0.3-15.1q8.4-0.1 16.9-0.3-0.5-28.3-0.9-58.1-8.7 0.1-17.4 0.2 0.7 29.9 1.4 58.2zm-1.4-58.2q8.7-0.1 17.4-0.2-0.5-26.8-0.9-55-8.9 0.2-17.8 0.3 0.7 28.1 1.3 54.9zm-1.3-54.9q8.9-0.1 17.8-0.3-0.1-8.2-0.3-16.6-8.9 0.1-17.9 0.2 0.2 8.4 0.4 16.7zm-0.4-16.7q9-0.1 17.9-0.2-0.1-8.2-0.2-16.4-9.1 0.1-18.1 0.2 0.2 8.3 0.4 16.4zm20.5 164.9q15.8-0.2 31.6-0.4 0-10.1 0-20.3-15.9 0.2-31.9 0.5 0.2 10.2 0.3 20.2zm-0.3-20.2q16-0.3 31.9-0.5 0-7.5 0-15.1-16.1 0.2-32.1 0.4 0.1 7.7 0.2 15.2zm-0.2-15.2q16-0.2 32.1-0.4-0.1-28.3-0.1-58.2-16.5 0.3-32.9 0.5 0.4 29.8 0.9 58.1zm-0.9-58.1q16.4-0.2 32.9-0.5 0-26.8-0.1-54.9-16.8 0.2-33.7 0.4 0.4 28.2 0.9 55zm-0.9-55q16.9-0.2 33.7-0.4 0-8.2 0-16.6-17 0.2-34 0.4 0.2 8.4 0.3 16.6zm-0.3-16.6q17-0.2 34-0.4 0-8.2 0-16.5-17.1 0.2-34.2 0.5 0.1 8.2 0.2 16.4zm34.2 164.7q17.2-0.3 34.3-0.5 0.2-10 0.3-20.2-17.3 0.2-34.6 0.4 0 10.2 0 20.3zm0-20.3q17.3-0.2 34.6-0.4 0.1-7.6 0.2-15.2-17.4 0.3-34.8 0.5 0 7.6 0 15.1zm0-15.1q17.4-0.2 34.8-0.5 0.5-28.3 0.9-58.1-17.9 0.2-35.8 0.4 0 29.9 0.1 58.2zm-0.1-58.2q17.9-0.2 35.8-0.4 0.4-26.8 0.8-55-18.3 0.3-36.7 0.5 0.1 28.1 0.1 54.9zm-0.1-54.9q18.4-0.2 36.7-0.5 0.1-8.2 0.3-16.6-18.5 0.2-37 0.5 0 8.4 0 16.6zm0-16.6q18.5-0.3 37-0.5 0.1-8.2 0.2-16.4-18.6 0.2-37.2 0.4 0 8.3 0 16.5zm34.5 164.6q5.9-0.1 11.7-0.2 0.2-10 0.4-20.2-5.9 0.1-11.8 0.2-0.1 10.2-0.3 20.2zm0.3-20.2q5.9-0.1 11.8-0.2 0.2-7.5 0.4-15.1-6 0-12 0.1-0.1 7.6-0.2 15.2zm0.2-15.2q6-0.1 12-0.1 0.5-28.4 1.1-58.2-6.1 0.1-12.2 0.2-0.4 29.8-0.9 58.1zm0.9-58.1q6.1-0.1 12.2-0.2 0.6-26.8 1.1-54.9-6.2 0.1-12.5 0.1-0.4 28.2-0.8 55zm0.8-55q6.3 0 12.5-0.1 0.2-8.3 0.4-16.6-6.3 0-12.6 0.1-0.2 8.4-0.3 16.6zm0.3-16.6q6.3-0.1 12.6-0.1 0.1-8.2 0.3-16.5-6.3 0.1-12.7 0.2-0.1 8.2-0.2 16.4zm9.2 164.9q7-0.1 14-0.2 0.3-10 0.6-20.2-7.1 0.1-14.2 0.2-0.2 10.2-0.4 20.2zm0.4-20.2q7.1-0.1 14.2-0.2 0.2-7.5 0.4-15.1-7.1 0.1-14.2 0.2-0.2 7.6-0.4 15.1zm0.4-15.1q7.1-0.1 14.2-0.2 0.7-28.3 1.5-58.2-7.3 0.1-14.6 0.2-0.6 29.8-1.1 58.2zm1.1-58.2q7.3-0.1 14.6-0.2 0.8-26.8 1.5-54.9-7.5 0.1-15 0.2-0.5 28.1-1.1 54.9zm1.1-54.9q7.5-0.1 15-0.2 0.2-8.3 0.5-16.6-7.6 0.1-15.1 0.2-0.2 8.3-0.4 16.6zm0.4-16.6q7.5-0.1 15.1-0.2 0.2-8.2 0.4-16.5-7.6 0.1-15.2 0.2-0.2 8.3-0.3 16.5z"/>
				<path id="&lt;Path&gt;" class="s109" d="m592 191.7c0 64.5-41.1 116.8-91.8 116.8-50.8 0-91.9-52.3-91.9-116.8 0-64.4 41.1-116.7 91.9-116.7 50.7 0 91.8 52.3 91.8 116.7z"/>
			</g>
			<path id="&lt;Path&gt;" class="s110" d="m596.6 52.4c0 10.1-38.2 18.3-85.3 18.3-47.1 0-85.3-8.2-85.3-18.3 0-10.1 38.2-18.2 85.3-18.2 47.1 0 85.3 8.1 85.3 18.2z"/>
			<path id="&lt;Path&gt;" class="s111" d="m617.3 365.1c0 10.1-47.5 18.3-106 18.3-58.5 0-106-8.2-106-18.3 0-10.1 47.5-18.3 106-18.3 58.5 0 106 8.2 106 18.3z"/>
			<g id="&lt;Group&gt;" style="mix-blend-mode: multiply">
				<g id="&lt;Group&gt;">
					<path id="&lt;Path&gt;" class="s112" d="m668.6 362.6h-0.2l3.8-62h0.3z"/>
				</g>
				<g id="&lt;Group&gt;">
					<path id="&lt;Path&gt;" class="s112" d="m606.7 348.8h-0.2v-52.3h0.2z"/>
				</g>
				<g id="&lt;Group&gt;">
					<path id="&lt;Path&gt;" class="s112" d="m771.3 384.4h-0.5v-73.3h0.5z"/>
				</g>
				<g id="&lt;Group&gt;">
					<path id="&lt;Path&gt;" class="s112" d="m874.3 400h-0.5l15.4-80.3 0.5 0.1z"/>
				</g>
				<g id="&lt;Group&gt;">
					<path id="&lt;Path&gt;" class="s112" d="m123.9 400.3l-12.4-80.6h0.4l12.5 80.5z"/>
				</g>
				<g id="&lt;Group&gt;">
					<path id="&lt;Path&gt;" class="s112" d="m211 389.9l-2.2-77h0.5l2.2 77z"/>
				</g>
				<g id="&lt;Group&gt;">
					<path id="&lt;Path&gt;" class="s112" d="m316.8 372.2l-4.2-68.2 0.3-0.1 4.2 68.3z"/>
				</g>
				<g id="&lt;Group&gt;">
					<path id="&lt;Path&gt;" class="s112" d="m410.4 352.2l-5.2-52.8h0.2l5.2 52.8z"/>
				</g>
				<g id="&lt;Group&gt;">
					<path id="&lt;Path&gt;" class="s112" d="m466.9 347.7l-7.7-52.9h0.3l7.6 52.9z"/>
				</g>
				<g id="&lt;Group&gt;">
					<path id="&lt;Path&gt;" class="s112" d="m551.7 346h-0.2l5.3-53.6h0.2z"/>
				</g>
			</g>
		</g>
	</g>
</svg>